<?xml version="1.0" encoding="UTF-8" standalone="no"?>
<!-- Created with Inkscape (http://www.inkscape.org/) -->
<svg xmlns:dc="http://purl.org/dc/elements/1.1/" xmlns:cc="http://creativecommons.org/ns#" xmlns:rdf="http://www.w3.org/1999/02/22-rdf-syntax-ns#" xmlns:svg="http://www.w3.org/2000/svg" xmlns="http://www.w3.org/2000/svg" xmlns:sodipodi="http://sodipodi.sourceforge.net/DTD/sodipodi-0.dtd" xmlns:inkscape="http://www.inkscape.org/namespaces/inkscape" id="svg2443" sodipodi:version="0.32" inkscape:version="0.46" width="260.37" height="321.98001" xml:space="preserve" sodipodi:docname="ENSCP.svg" inkscape:output_extension="org.inkscape.output.svg.inkscape" version="1.0"><metadata id="metadata2448"><rdf:RDF><cc:Work rdf:about=""><dc:format>image/svg+xml</dc:format><dc:type rdf:resource="http://purl.org/dc/dcmitype/StillImage"/></cc:Work></rdf:RDF></metadata><defs id="defs2446"><inkscape:perspective sodipodi:type="inkscape:persp3d" inkscape:vp_x="0 : 526.18109 : 1" inkscape:vp_y="0 : 1000 : 0" inkscape:vp_z="744.09448 : 526.18109 : 1" inkscape:persp3d-origin="372.04724 : 350.78739 : 1" id="perspective2450"/><clipPath clipPathUnits="userSpaceOnUse" id="clipPath2460"><path d="M 0,2555.24 L 0,0 L 2066.97,0 L 2066.97,2555.24 L 0,2555.24 z" id="path2462"/></clipPath><clipPath id="clipPath3065" clipPathUnits="userSpaceOnUse"><path id="path3067" d="M 318.325,544.25 L 419.52,544.25 L 419.52,479.6 L 318.325,479.6 L 318.325,544.25 z"/></clipPath><clipPath id="clipPath2929" clipPathUnits="userSpaceOnUse"><path id="path2931" d="M 51.215,514.49 L 169.892,514.49 L 169.892,534.506 L 51.215,534.506 L 51.215,514.49 z"/></clipPath><clipPath id="clipPath2917" clipPathUnits="userSpaceOnUse"><path id="path2919" d="M 51.215,514.49 L 169.892,514.49 L 169.892,534.506 L 51.215,534.506 L 51.215,514.49 z"/></clipPath><clipPath id="clipPath2425" clipPathUnits="userSpaceOnUse"><path id="path2427" d="M 196.725,544.3 L 318.375,544.3 L 318.375,475.9 L 196.725,475.9 L 196.725,544.3 z"/></clipPath><inkscape:perspective inkscape:persp3d-origin="300 : 400 : 1" inkscape:vp_z="700 : 600 : 1" inkscape:vp_y="0 : 1000 : 0" inkscape:vp_x="-50 : 600 : 1" id="perspective2415" sodipodi:type="inkscape:persp3d"/></defs><sodipodi:namedview inkscape:window-height="774" inkscape:window-width="972" inkscape:pageshadow="2" inkscape:pageopacity="0.0" guidetolerance="10.0" gridtolerance="10.0" objecttolerance="10.0" borderopacity="1.0" bordercolor="#666666" pagecolor="#ffffff" id="base" showgrid="false" inkscape:zoom="1.55625" inkscape:cx="261.19562" inkscape:cy="154.11482" inkscape:window-x="1640" inkscape:window-y="43" inkscape:current-layer="g2452"/><g id="g2452" inkscape:groupmode="layer" inkscape:label="logo_CPP" transform="matrix(1.25,0,0,-1.25,0,319.405)"><g id="g4370" transform="translate(-0.24,0)"><g transform="translate(1.2,-1.5993139)" id="g4269"><path id="path2464" style="fill:#009e4c;fill-opacity:1;fill-rule:nonzero;stroke:none" d="M 0,152.154 C 0,209.245 46.2812,255.524 103.371,255.524 C 160.416,255.524 206.697,209.245 206.697,152.154 C 206.697,95.0578 160.416,48.7809 103.371,48.7809 C 46.2812,48.7809 0,95.0578 0,152.154 L 0,152.154"/><g id="g3288"><path d="M 39.2621,105.367 L 167.432,105.367 L 167.432,101.347 L 39.2621,101.347 L 39.2621,105.367" style="fill:#ffffff;fill-opacity:1;fill-rule:nonzero;stroke:none" id="path2466"/><path d="M 35.2301,98.3039 L 171.467,98.3039 L 171.467,94.2891 L 35.2301,94.2891 L 35.2301,98.3039" style="fill:#ffffff;fill-opacity:1;fill-rule:nonzero;stroke:none" id="path2468"/><path d="M 43.3004,108.402 L 43.3004,153.733 C 43.3004,164.192 51.8062,172.671 62.3023,172.671 C 72.7961,172.671 81.3031,164.192 81.3031,153.733 L 81.3031,108.402 L 77.2719,108.402 L 77.2719,153.733 C 77.2719,161.972 70.5691,168.655 62.3023,168.655 C 54.0332,168.655 47.3301,161.972 47.3301,153.733 L 47.3301,108.402 L 43.3004,108.402 L 43.3004,108.402 z M 47.3301,112.421 L 77.2719,112.421 L 77.2719,108.402 L 47.3301,108.402 L 47.3301,112.421" style="fill:#ffffff;fill-opacity:1;fill-rule:nonzero;stroke:none" id="path2470"/><path d="M 84.3531,108.402 L 84.3531,153.735 C 84.3531,164.192 92.8621,172.671 103.357,172.671 C 113.85,172.671 122.355,164.192 122.355,153.735 L 122.355,108.402 L 118.324,108.402 L 118.324,153.735 C 118.324,161.974 111.624,168.655 103.357,168.655 C 95.0879,168.655 88.3852,161.974 88.3852,153.735 L 88.3852,108.402 L 84.3531,108.402 L 84.3531,108.402 z M 88.3852,112.421 L 118.324,112.421 L 118.324,108.402 L 88.3852,108.402 L 88.3852,112.421" style="fill:#ffffff;fill-opacity:1;fill-rule:nonzero;stroke:none" id="path2472"/><path d="M 125.406,108.402 L 125.406,153.735 C 125.406,164.192 133.92,172.671 144.412,172.671 C 154.902,172.671 163.414,164.192 163.414,153.735 L 163.414,108.402 L 159.385,108.402 L 159.385,153.735 C 159.385,161.974 152.678,168.655 144.412,168.655 C 136.141,168.655 129.439,161.974 129.439,153.735 L 129.439,108.402 L 125.406,108.402 L 125.406,108.402 z M 129.439,112.421 L 159.385,112.421 L 159.385,108.402 L 129.439,108.402 L 129.439,112.421" style="fill:#ffffff;fill-opacity:1;fill-rule:nonzero;stroke:none" id="path2474"/></g><g id="g3275"><path d="M 43.2793,198.839 L 41.5094,198.839 C 40.9691,198.839 40.6992,199.108 40.6992,199.648 L 40.6992,200.848 C 40.6992,201.418 40.5191,201.868 40.1594,202.259 C 39.7691,202.648 39.3492,202.858 38.8691,202.858 L 34.9691,202.858 C 34.459,202.858 34.0391,202.678 33.6793,202.288 C 33.2891,201.898 33.109,201.418 33.109,200.848 L 33.109,188.879 C 33.109,188.308 33.2891,187.858 33.6488,187.468 C 34.0391,187.078 34.459,186.868 34.9391,186.868 L 38.8691,186.868 C 39.3492,186.868 39.7691,187.048 40.1289,187.438 C 40.5191,187.828 40.6992,188.308 40.6992,188.879 L 40.6992,190.108 C 40.6992,190.618 40.9691,190.888 41.5094,190.888 L 43.2488,190.888 C 43.7891,190.888 44.059,190.618 44.059,190.108 L 44.059,188.879 C 44.059,187.438 43.5492,186.238 42.559,185.308 C 41.5688,184.379 40.3391,183.898 38.8691,183.898 L 34.9391,183.898 C 33.4988,183.898 32.2691,184.379 31.2789,185.308 C 30.259,186.238 29.7488,187.438 29.7488,188.879 L 29.7488,200.848 C 29.7488,202.288 30.259,203.488 31.2488,204.418 C 32.2691,205.348 33.4988,205.828 34.9691,205.828 L 38.8691,205.828 C 40.3391,205.828 41.5688,205.348 42.559,204.418 C 43.5793,203.488 44.0891,202.288 44.0891,200.848 L 44.0891,199.618 C 44.0891,199.108 43.8191,198.839 43.2793,198.839" style="fill:#ffffff;fill-opacity:1;fill-rule:nonzero;stroke:none" id="path2476"/><path d="M 58.609,183.898 L 56.8391,183.898 C 56.2988,183.898 56.0289,184.168 56.0289,184.678 L 56.0289,194.578 C 56.0289,195.148 55.8492,195.598 55.4887,195.988 C 55.0992,196.379 54.6785,196.589 54.1988,196.589 L 50.0289,196.589 L 50.0289,184.678 C 50.0289,184.168 49.759,183.898 49.2188,183.898 L 47.4488,183.898 C 46.9086,183.898 46.6387,184.168 46.6387,184.678 L 46.6387,204.778 C 46.6387,205.198 46.9988,205.498 47.7188,205.648 C 48.1688,205.709 48.6488,205.768 49.1289,205.828 C 49.3988,205.858 49.609,205.798 49.759,205.618 C 49.9391,205.438 50.0289,205.259 50.0289,205.048 L 50.0289,199.558 L 54.1988,199.558 C 55.6688,199.558 56.8988,199.078 57.8887,198.148 C 58.9086,197.218 59.4188,196.018 59.4188,194.578 L 59.4188,184.678 C 59.4188,184.168 59.1488,183.898 58.609,183.898" style="fill:#ffffff;fill-opacity:1;fill-rule:nonzero;stroke:none" id="path2478"/><path d="M 65.1484,183.898 L 63.3785,183.898 C 62.8383,183.898 62.5684,184.168 62.5684,184.678 L 62.5684,198.778 C 62.5684,199.288 62.8383,199.558 63.3785,199.558 L 65.1484,199.558 C 65.6887,199.558 65.9586,199.288 65.9586,198.778 L 65.9586,184.678 C 65.9586,184.168 65.6887,183.898 65.1484,183.898 z M 65.7188,202.858 L 62.8086,202.858 C 62.2688,202.858 61.9984,203.129 61.9984,203.638 L 61.9984,205.048 C 61.9984,205.558 62.2688,205.828 62.8086,205.828 L 65.7188,205.828 C 66.259,205.828 66.5289,205.558 66.5289,205.048 L 66.5289,203.638 C 66.5289,203.129 66.259,202.858 65.7188,202.858" style="fill:#ffffff;fill-opacity:1;fill-rule:nonzero;stroke:none" id="path2480"/><path d="M 90.4688,183.898 L 88.7285,183.898 C 88.1586,183.898 87.8887,184.168 87.8887,184.678 L 87.8887,194.668 C 87.8887,195.209 87.7086,195.658 87.3484,196.048 C 86.9586,196.438 86.5387,196.648 86.0586,196.648 L 83.7188,196.648 C 83.2387,196.648 82.8184,196.468 82.4586,196.078 C 82.0684,195.688 81.8887,195.238 81.8887,194.668 L 81.8887,184.678 C 81.8887,184.348 81.6484,184.078 81.1684,183.898 L 79.3086,183.898 C 78.7688,183.898 78.4984,184.168 78.4984,184.678 L 78.4984,194.668 C 78.4984,195.238 78.3184,195.688 77.9586,196.078 C 77.5684,196.468 77.1484,196.648 76.6684,196.648 L 74.3285,196.648 C 73.8184,196.648 73.3984,196.468 73.0387,196.078 C 72.6484,195.688 72.4684,195.209 72.4684,194.668 L 72.4984,184.678 C 72.4984,184.168 72.2285,183.898 71.6586,183.898 L 69.9184,183.898 C 69.3484,183.898 69.1086,184.168 69.1086,184.678 L 69.1086,194.668 C 69.1086,196.078 69.6188,197.248 70.6086,198.178 C 71.6285,199.108 72.8586,199.558 74.3285,199.558 L 76.6684,199.558 C 78.0188,199.558 79.1887,199.138 80.1785,198.328 C 81.1684,199.138 82.3383,199.558 83.7188,199.558 L 86.0586,199.558 C 87.5289,199.558 88.759,199.108 89.7484,198.178 C 90.7688,197.248 91.2789,196.078 91.2789,194.668 L 91.2789,184.678 C 91.2789,184.168 91.009,183.898 90.4688,183.898" style="fill:#ffffff;fill-opacity:1;fill-rule:nonzero;stroke:none" id="path2482"/><path d="M 97.0078,183.898 L 95.2379,183.898 C 94.6977,183.898 94.4277,184.168 94.4277,184.678 L 94.4277,198.778 C 94.4277,199.288 94.6977,199.558 95.2379,199.558 L 97.0078,199.558 C 97.548,199.558 97.818,199.288 97.818,198.778 L 97.818,184.678 C 97.818,184.168 97.548,183.898 97.0078,183.898 z M 97.5781,202.858 L 94.668,202.858 C 94.1277,202.858 93.8578,203.129 93.8578,203.638 L 93.8578,205.048 C 93.8578,205.558 94.1277,205.828 94.668,205.828 L 97.5781,205.828 C 98.1184,205.828 98.3883,205.558 98.3883,205.048 L 98.3883,203.638 C 98.3883,203.129 98.1184,202.858 97.5781,202.858" style="fill:#ffffff;fill-opacity:1;fill-rule:nonzero;stroke:none" id="path2484"/><path d="M 109.668,196.048 C 109.278,196.438 108.858,196.648 108.379,196.648 L 106.039,196.648 C 105.528,196.648 105.108,196.468 104.749,196.078 C 104.388,195.688 104.208,195.209 104.208,194.668 L 104.208,192.688 L 108.379,192.688 C 108.858,192.688 109.278,192.868 109.639,193.259 C 110.028,193.648 110.209,194.129 110.209,194.668 C 110.209,195.209 110.028,195.658 109.668,196.048 z M 112.099,191.158 C 111.078,190.228 109.849,189.778 108.379,189.778 L 104.208,189.778 L 104.208,188.788 C 104.208,188.248 104.388,187.798 104.749,187.408 C 105.108,187.018 105.528,186.808 106.039,186.808 C 108.019,186.808 109.519,186.957 110.568,187.228 C 110.868,187.318 111.108,187.228 111.289,187.048 C 111.469,186.839 111.559,186.658 111.559,186.478 L 111.559,185.248 C 111.559,184.348 109.729,183.898 106.039,183.898 C 104.568,183.898 103.338,184.348 102.348,185.278 C 101.328,186.207 100.818,187.379 100.818,188.788 L 100.818,194.668 C 100.818,196.078 101.328,197.218 102.318,198.148 C 103.338,199.078 104.568,199.558 106.039,199.558 L 108.379,199.558 C 109.849,199.558 111.078,199.108 112.068,198.178 C 113.088,197.248 113.599,196.078 113.599,194.668 C 113.599,193.259 113.088,192.089 112.099,191.158" style="fill:#ffffff;fill-opacity:1;fill-rule:nonzero;stroke:none" id="path2486"/><path d="M 133.22,200.848 C 133.22,201.418 133.039,201.898 132.68,202.288 C 132.289,202.678 131.869,202.888 131.39,202.888 L 124.879,202.888 L 124.879,196.858 L 131.39,196.858 C 131.899,196.858 132.319,197.068 132.68,197.459 C 133.069,197.848 133.25,198.328 133.25,198.868 L 133.22,200.848 z M 136.609,198.868 C 136.609,197.428 136.069,196.228 135.08,195.298 C 134.09,194.368 132.859,193.888 131.39,193.888 L 124.879,193.888 L 124.879,184.678 C 124.879,184.168 124.609,183.898 124.039,183.898 L 122.299,183.898 C 121.76,183.898 121.489,184.168 121.489,184.678 L 121.489,205.048 C 121.489,205.589 121.76,205.858 122.299,205.858 L 131.39,205.828 C 132.859,205.828 134.09,205.348 135.109,204.418 C 136.129,203.488 136.609,202.288 136.609,200.848 L 136.609,198.868" style="fill:#ffffff;fill-opacity:1;fill-rule:nonzero;stroke:none" id="path2488"/><path d="M 144.973,190.768 L 140.803,190.768 C 140.293,190.768 139.873,190.589 139.514,190.198 C 139.123,189.808 138.943,189.328 138.943,188.788 C 138.943,188.248 139.123,187.798 139.482,187.408 C 139.873,187.018 140.293,186.808 140.803,186.808 L 144.973,186.808 L 144.973,190.768 z M 147.553,183.898 L 140.803,183.898 C 139.333,183.898 138.104,184.348 137.113,185.278 C 136.093,186.207 135.583,187.379 135.583,188.788 C 135.583,190.198 136.093,191.368 137.083,192.298 C 138.104,193.228 139.333,193.678 140.803,193.678 L 144.973,193.678 L 144.973,194.668 C 144.973,195.238 144.793,195.688 144.434,196.078 C 144.043,196.468 143.623,196.648 143.143,196.648 C 141.313,196.648 140.053,196.558 139.333,196.408 C 139.063,196.348 138.823,196.438 138.643,196.648 C 138.493,196.798 138.402,196.978 138.402,197.188 L 138.402,198.448 C 138.402,198.839 138.613,199.078 139.063,199.198 C 139.934,199.438 141.313,199.558 143.143,199.558 C 144.613,199.558 145.844,199.108 146.833,198.178 C 147.854,197.248 148.363,196.078 148.363,194.668 L 148.363,184.678 C 148.363,184.168 148.094,183.898 147.553,183.898" style="fill:#ffffff;fill-opacity:1;fill-rule:nonzero;stroke:none" id="path2490"/><path d="M 160.303,196.888 C 160.123,196.709 159.912,196.618 159.703,196.618 C 158.143,196.648 156.883,196.678 155.953,196.678 C 155.503,196.678 155.082,196.468 154.693,196.078 C 154.303,195.688 154.123,195.209 154.123,194.668 L 154.123,184.707 C 154.123,184.168 153.853,183.898 153.313,183.898 L 151.572,183.898 C 151.033,183.898 150.763,184.168 150.763,184.678 L 150.763,194.668 C 150.763,196.108 151.272,197.308 152.263,198.238 C 153.253,199.168 154.513,199.648 155.982,199.589 C 156.463,199.589 157.723,199.528 159.763,199.438 C 160.303,199.408 160.572,199.138 160.572,198.629 L 160.572,197.428 C 160.572,197.218 160.482,197.038 160.303,196.888" style="fill:#ffffff;fill-opacity:1;fill-rule:nonzero;stroke:none" id="path2492"/><path d="M 165.372,183.898 L 163.602,183.898 C 163.063,183.898 162.792,184.168 162.792,184.678 L 162.792,198.778 C 162.792,199.288 163.063,199.558 163.602,199.558 L 165.372,199.558 C 165.912,199.558 166.182,199.288 166.182,198.778 L 166.182,184.678 C 166.182,184.168 165.912,183.898 165.372,183.898 z M 165.942,202.858 L 163.032,202.858 C 162.492,202.858 162.223,203.129 162.223,203.638 L 162.223,205.048 C 162.223,205.558 162.492,205.828 163.032,205.828 L 165.942,205.828 C 166.482,205.828 166.752,205.558 166.752,205.048 L 166.752,203.638 C 166.752,203.129 166.482,202.858 165.942,202.858" style="fill:#ffffff;fill-opacity:1;fill-rule:nonzero;stroke:none" id="path2494"/><path d="M 177.369,185.188 C 176.35,184.318 175.119,183.898 173.648,183.898 C 170.169,183.898 168.43,184.348 168.43,185.248 L 168.43,186.478 C 168.43,186.658 168.52,186.839 168.669,187.018 C 168.85,187.228 169.089,187.318 169.389,187.228 C 170.439,186.957 171.85,186.808 173.648,186.808 C 174.159,186.808 174.609,186.957 174.939,187.259 C 175.299,187.589 175.479,188.009 175.479,188.518 C 175.479,188.968 175.238,189.328 174.759,189.629 C 174.669,189.658 174.219,189.868 173.409,190.228 C 171.488,191.068 170.379,191.608 170.049,191.818 C 168.969,192.568 168.43,193.618 168.43,194.908 C 168.43,196.318 168.939,197.459 169.93,198.298 C 170.919,199.138 172.18,199.558 173.648,199.558 C 177.068,199.558 178.779,199.108 178.779,198.209 L 178.779,196.978 C 178.779,196.798 178.689,196.618 178.539,196.438 C 178.359,196.228 178.119,196.168 177.818,196.228 C 176.77,196.498 175.359,196.648 173.648,196.648 C 173.109,196.648 172.659,196.498 172.329,196.198 C 171.999,195.868 171.818,195.448 171.818,194.938 C 171.818,194.488 172.059,194.129 172.509,193.828 C 172.629,193.738 173.079,193.558 173.859,193.228 C 175.689,192.478 176.799,191.938 177.249,191.638 C 178.329,190.888 178.869,189.839 178.869,188.548 C 178.869,187.138 178.359,186.028 177.369,185.188" style="fill:#ffffff;fill-opacity:1;fill-rule:nonzero;stroke:none" id="path2496"/></g></g><g transform="translate(1.2,-1.5993139)" id="g4216"><g id="g3361" style="fill:#07a6a6;fill-opacity:1" transform="translate(1.02811,34.441767)"><path id="path2911" style="fill:#07a6a6;fill-opacity:1;fill-rule:nonzero;stroke:none" d="M 32.076275,-10.48786 C 33.370025,-10.42036 36.440025,-10.38286 38.297525,-10.52536 C 41.713775,-10.77411 43.181275,-12.71661 43.181275,-15.16286 C 43.181275,-18.36161 40.682525,-20.63411 36.356275,-20.98786 C 34.882525,-21.10161 33.158775,-21.10161 32.076275,-20.98786 L 32.076275,-10.48786 z M 32.076275,-22.40286 C 33.158775,-22.40286 35.965025,-22.65161 37.913775,-22.32786 C 44.001275,-21.31161 47.138775,-19.33286 47.138775,-14.98161 C 47.138775,-10.63161 44.385025,-9.08786 36.010025,-9.08786 L 28.298775,-9.08786 L 28.298775,-33.69411 C 28.901275,-33.65661 29.540025,-33.60411 30.187525,-33.60411 C 30.788775,-33.60411 31.391275,-33.65661 32.076275,-33.69411 L 32.076275,-22.40286"/><path id="path2921" style="fill:#07a6a6;fill-opacity:1;fill-rule:nonzero;stroke:none" d="M 59.086275,-25.57161 C 59.086275,-26.58036 59.131275,-27.21286 58.987525,-28.21411 C 58.665025,-30.45786 56.903775,-32.94161 53.970025,-33.09911 C 51.510025,-33.25036 50.343775,-31.31536 50.531275,-29.53161 C 50.945025,-25.54161 52.487525,-26.04661 57.220025,-24.57161 L 59.086275,-23.98411 L 59.086275,-25.57161 z M 59.086275,-23.13411 L 58.386275,-23.41161 C 56.806275,-24.02911 56.851275,-23.95411 53.970025,-24.57161 C 50.576275,-25.30911 47.092525,-25.73036 46.905025,-29.60661 C 46.815025,-32.05286 49.372525,-33.91161 52.246275,-34.06286 C 55.083775,-34.21286 57.920025,-32.97911 58.852525,-30.61536 L 58.852525,-33.60411 L 64.525025,-33.60411 L 64.525025,-32.94161 L 62.570025,-32.94161 L 62.570025,-22.12536 C 62.570025,-19.25661 62.057525,-16.58536 55.926275,-16.31411 C 54.248775,-16.23911 53.826275,-16.39661 52.622525,-16.54786 C 51.231275,-16.74286 49.930025,-17.16411 48.996275,-17.51786 L 48.996275,-22.71161 L 49.831275,-22.71161 L 50.855025,-20.54411 C 51.735025,-18.67786 52.525025,-16.66786 55.550025,-16.93911 C 58.573775,-17.20911 59.086275,-18.87286 59.086275,-20.65661 L 59.086275,-23.13411"/><path id="path2923" style="fill:#07a6a6;fill-opacity:1;fill-rule:nonzero;stroke:none" d="M 75.141275,-33.60411 L 66.730025,-33.60411 L 66.730025,-32.94161 L 68.821275,-32.94161 L 68.821275,-17.43536 L 66.640025,-17.43536 L 66.640025,-16.74286 L 72.080025,-16.74286 L 72.080025,-20.26536 C 72.305025,-18.99411 74.253775,-16.63036 77.323775,-16.63036 C 78.211275,-16.63036 79.001275,-16.82536 79.888775,-17.20911 L 79.888775,-23.32911 L 79.001275,-23.32911 L 77.887525,-20.49911 C 77.090025,-18.51911 76.488775,-17.24786 75.277525,-17.82661 C 72.117525,-19.34036 72.395025,-22.97536 72.395025,-26.39286 L 72.395025,-32.94161 L 75.141275,-32.94161 L 75.141275,-33.60411"/><path id="path2933" style="fill:#07a6a6;fill-opacity:1;fill-rule:nonzero;stroke:none" d="M 82.228775,-33.60411 L 82.228775,-32.94161 L 84.366275,-32.94161 L 84.366275,-17.43536 L 82.363775,-17.43536 L 82.363775,-16.74286 L 87.992525,-16.74286 L 87.992525,-32.94161 L 89.895025,-32.94161 L 89.895025,-33.60411 L 82.228775,-33.60411 z M 88.090025,-12.82911 C 88.090025,-13.91286 87.013775,-14.68786 85.810025,-14.68786 C 84.643775,-14.68786 83.576275,-13.83036 83.576275,-12.86661 C 83.576275,-11.89536 84.598775,-10.97036 85.765025,-10.97036 C 87.013775,-10.97036 88.090025,-11.82036 88.090025,-12.82911"/><path id="path2935" style="fill:#07a6a6;fill-opacity:1;fill-rule:nonzero;stroke:none" d="M 103.77003,-20.69411 C 102.88877,-18.06036 102.00877,-17.01411 99.586275,-17.01411 C 97.493775,-17.01411 94.846275,-17.70661 94.657525,-19.84411 C 94.522525,-21.74036 96.892525,-22.51661 99.030025,-23.10286 C 102.65502,-24.14161 106.88377,-25.22661 106.74877,-28.60536 C 106.65127,-31.82786 103.44627,-34.18286 99.075025,-34.10036 C 96.568775,-34.06286 93.732525,-33.25036 92.755025,-32.67036 L 92.755025,-27.13036 L 93.590025,-27.13036 L 94.567525,-29.92286 C 95.636275,-33.06161 96.847525,-33.09911 98.751275,-33.25036 C 101.39877,-33.48286 104.42377,-32.39911 104.65752,-30.23161 C 104.98128,-27.55911 100.70753,-26.85911 98.006275,-26.04661 C 96.102525,-25.46661 92.378775,-24.41286 92.378775,-21.23661 C 92.378775,-17.51786 97.216275,-16.27661 99.773775,-16.27661 C 101.91127,-16.27661 104.37877,-16.97661 105.25877,-17.43536 L 105.25877,-22.51661 L 104.37877,-22.51661 L 103.77003,-20.69411"/></g><g id="g3355" style="fill:#231f20;fill-opacity:1" transform="translate(1.02811,34.441767)"><path id="path2937" style="fill:#231f20;fill-opacity:1;fill-rule:nonzero;stroke:none" d="M 117.30503,-33.76161 C 116.61253,-33.72411 116.01002,-33.70911 115.40877,-33.70911 C 114.76878,-33.70911 114.12252,-33.72411 113.52003,-33.76161 L 113.52003,-10.78911 C 109.16378,-10.78911 106.53127,-11.00786 104.07127,-11.21786 C 104.11502,-10.86411 104.22878,-10.50286 104.22878,-10.15661 C 104.22878,-9.79536 104.11502,-9.47161 104.07127,-9.08036 L 126.32627,-9.08036 C 126.28002,-9.47161 126.22003,-9.79536 126.22003,-10.15661 C 126.22003,-10.50286 126.28002,-10.86411 126.32627,-11.21786 C 124.16628,-11.00786 121.14128,-10.78911 117.30503,-10.78911 L 117.30503,-33.76161"/><path id="path2939" style="fill:#231f20;fill-opacity:1;fill-rule:nonzero;stroke:none" d="M 127.50628,-20.65661 C 127.83752,-18.79786 129.32003,-17.01411 131.36627,-16.93911 C 133.82627,-16.82536 134.76003,-18.99411 134.80503,-20.92786 L 134.85753,-22.74911 L 127.13753,-22.74911 L 127.50628,-20.65661 z M 138.80753,-27.31786 L 137.92003,-27.31786 L 137.87502,-27.79286 C 137.64127,-30.11911 135.73752,-33.44536 132.11127,-33.25036 C 128.02628,-33.06161 127.13753,-29.48661 127.13753,-25.46661 L 127.13753,-23.48786 L 138.75503,-23.48786 C 139.17628,-19.91911 136.20377,-16.15536 131.55503,-16.20161 C 126.76128,-16.27661 123.51127,-20.26536 123.23377,-25.00036 C 122.95503,-30.15661 126.81503,-34.14536 131.83253,-34.06286 C 135.78252,-33.98786 138.47628,-31.08161 138.75503,-27.86786 L 138.80753,-27.31786"/><path id="path2941" style="fill:#231f20;fill-opacity:1;fill-rule:nonzero;stroke:none" d="M 155.14128,-23.10286 L 154.68253,-21.70286 C 153.65127,-18.33161 152.44753,-16.82536 150.31128,-16.78036 C 145.79753,-16.69786 145.05253,-21.59036 145.15002,-25.27161 C 145.24003,-28.68036 145.60878,-33.06161 150.35628,-33.09911 C 153.14752,-33.13661 154.86377,-30.93161 155.32878,-28.56786 L 155.56253,-27.31786 L 156.39752,-27.31786 L 156.26252,-28.17661 C 155.56253,-32.63286 152.62878,-34.03286 149.37877,-33.98786 C 144.12627,-33.95036 141.15502,-29.37286 141.15502,-25.03786 C 141.15502,-20.49911 144.63878,-16.27661 150.07002,-16.08036 C 151.47002,-16.04286 153.88502,-16.15536 156.02252,-17.20911 L 156.02252,-23.10286 L 155.14128,-23.10286"/><path id="path2943" style="fill:#231f20;fill-opacity:1;fill-rule:nonzero;stroke:none" d="M 168.69128,-33.60411 L 168.69128,-32.94161 L 171.15253,-32.94161 L 171.15253,-21.81661 C 171.15253,-19.60286 171.19753,-17.39786 168.50377,-17.48036 C 164.59877,-17.59411 164.08753,-22.17036 164.08753,-25.57161 L 164.08753,-32.94161 L 166.73502,-32.94161 L 166.73502,-33.60411 L 158.60253,-33.60411 L 158.60253,-32.94161 L 160.55128,-32.94161 L 160.55128,-11.42911 L 158.45878,-11.42911 L 158.45878,-10.72911 L 164.08753,-10.72911 L 164.08753,-19.53536 C 164.64378,-18.06036 167.01377,-16.27661 169.52753,-16.47161 C 173.29627,-16.74286 174.59003,-18.06036 174.59003,-21.62036 L 174.59003,-32.94161 L 176.64502,-32.94161 L 176.64502,-33.60411 L 168.69128,-33.60411"/></g></g></g></g></svg>