<?xml version="1.0" encoding="UTF-8" standalone="no"?>
<!-- Created with Inkscape (http://www.inkscape.org/) -->

<svg
   xmlns:dc="http://purl.org/dc/elements/1.1/"
   xmlns:cc="http://creativecommons.org/ns#"
   xmlns:rdf="http://www.w3.org/1999/02/22-rdf-syntax-ns#"
   xmlns:svg="http://www.w3.org/2000/svg"
   xmlns="http://www.w3.org/2000/svg"
   xmlns:sodipodi="http://sodipodi.sourceforge.net/DTD/sodipodi-0.dtd"
   xmlns:inkscape="http://www.inkscape.org/namespaces/inkscape"
   width="800"
   height="260"
   id="svg2"
   version="1.1"
   inkscape:version="0.48.2 r9819"
   sodipodi:docname="ParisTechLogo.svg">
  <defs
     id="defs4">
    <clipPath
       id="clipPath3481"
       clipPathUnits="userSpaceOnUse">
      <path
         id="path3483"
         d="m -1,284.465 615.673,0 0,-13.906 -615.673,0 0,13.906 z"
         inkscape:connector-curvature="0" />
    </clipPath>
    <clipPath
       id="clipPath3473"
       clipPathUnits="userSpaceOnUse">
      <path
         id="path3475"
         d="m 0,0 595.276,0 0,841.89 L 0,841.89 0,0 z"
         inkscape:connector-curvature="0" />
    </clipPath>
    <clipPath
       id="clipPath3461"
       clipPathUnits="userSpaceOnUse">
      <path
         id="path3463"
         d="m 0,165.827 595.275,0 0,127.559 -595.275,0 0,-127.559 z"
         inkscape:connector-curvature="0" />
    </clipPath>
    <clipPath
       id="clipPath3439"
       clipPathUnits="userSpaceOnUse">
      <path
         id="path3441"
         d="m 0,0 595.276,0 0,841.89 L 0,841.89 0,0 z"
         inkscape:connector-curvature="0" />
    </clipPath>
    <clipPath
       id="clipPath3417"
       clipPathUnits="userSpaceOnUse">
      <path
         id="path3419"
         d="m 0,0 595.276,0 0,841.89 L 0,841.89 0,0 z"
         inkscape:connector-curvature="0" />
    </clipPath>
    <clipPath
       id="clipPath3397"
       clipPathUnits="userSpaceOnUse">
      <path
         id="path3399"
         d="m 0,0 595.276,0 0,841.89 L 0,841.89 0,0 z"
         inkscape:connector-curvature="0" />
    </clipPath>
    <clipPath
       id="clipPath3381"
       clipPathUnits="userSpaceOnUse">
      <path
         id="path3383"
         d="m 0,0 595.276,0 0,841.89 L 0,841.89 0,0 z"
         inkscape:connector-curvature="0" />
    </clipPath>
    <clipPath
       id="clipPath3353"
       clipPathUnits="userSpaceOnUse">
      <path
         id="path3355"
         d="m 0,0 595.276,0 0,841.89 L 0,841.89 0,0 z"
         inkscape:connector-curvature="0" />
    </clipPath>
    <clipPath
       id="clipPath3333"
       clipPathUnits="userSpaceOnUse">
      <path
         id="path3335"
         d="m 0,0 595.276,0 0,841.89 L 0,841.89 0,0 z"
         inkscape:connector-curvature="0" />
    </clipPath>
    <clipPath
       id="clipPath3307"
       clipPathUnits="userSpaceOnUse">
      <path
         id="path3309"
         d="m 0,0 595.276,0 0,841.89 L 0,841.89 0,0 z"
         inkscape:connector-curvature="0" />
    </clipPath>
    <clipPath
       id="clipPath3291"
       clipPathUnits="userSpaceOnUse">
      <path
         id="path3293"
         d="m 0,0 595.276,0 0,841.89 L 0,841.89 0,0 z"
         inkscape:connector-curvature="0" />
    </clipPath>
    <clipPath
       id="clipPath3275"
       clipPathUnits="userSpaceOnUse">
      <path
         id="path3277"
         d="m 0,0 595.276,0 0,841.89 L 0,841.89 0,0 z"
         inkscape:connector-curvature="0" />
    </clipPath>
    <clipPath
       id="clipPath3249"
       clipPathUnits="userSpaceOnUse">
      <path
         id="path3251"
         d="m 0,0 595.276,0 0,841.89 L 0,841.89 0,0 z"
         inkscape:connector-curvature="0" />
    </clipPath>
    <clipPath
       id="clipPath3227"
       clipPathUnits="userSpaceOnUse">
      <path
         id="path3229"
         d="m 0,0 595.276,0 0,841.89 L 0,841.89 0,0 z"
         inkscape:connector-curvature="0" />
    </clipPath>
    <clipPath
       id="clipPath3207"
       clipPathUnits="userSpaceOnUse">
      <path
         id="path3209"
         d="m 0,0 595.276,0 0,841.89 L 0,841.89 0,0 z"
         inkscape:connector-curvature="0" />
    </clipPath>
    <clipPath
       id="clipPath3191"
       clipPathUnits="userSpaceOnUse">
      <path
         id="path3193"
         d="m 0,0 595.276,0 0,841.89 L 0,841.89 0,0 z"
         inkscape:connector-curvature="0" />
    </clipPath>
    <clipPath
       id="clipPath3167"
       clipPathUnits="userSpaceOnUse">
      <path
         id="path3169"
         d="m 0,0 595.276,0 0,841.89 L 0,841.89 0,0 z"
         inkscape:connector-curvature="0" />
    </clipPath>
    <clipPath
       id="clipPath3147"
       clipPathUnits="userSpaceOnUse">
      <path
         id="path3149"
         d="m 0,0 595.276,0 0,841.89 L 0,841.89 0,0 z"
         inkscape:connector-curvature="0" />
    </clipPath>
    <clipPath
       id="clipPath3121"
       clipPathUnits="userSpaceOnUse">
      <path
         id="path3123"
         d="m 0,0 595.276,0 0,841.89 L 0,841.89 0,0 z"
         inkscape:connector-curvature="0" />
    </clipPath>
    <clipPath
       id="clipPath3107"
       clipPathUnits="userSpaceOnUse">
      <path
         id="path3109"
         d="m 0,0 595.276,0 0,841.89 L 0,841.89 0,0 z"
         inkscape:connector-curvature="0" />
    </clipPath>
    <clipPath
       id="clipPath3093"
       clipPathUnits="userSpaceOnUse">
      <path
         id="path3095"
         d="m 0,0 595.276,0 0,841.89 L 0,841.89 0,0 z"
         inkscape:connector-curvature="0" />
    </clipPath>
    <clipPath
       id="clipPath3041"
       clipPathUnits="userSpaceOnUse">
      <path
         id="path3043"
         d="m 0,0 595.276,0 0,841.89 L 0,841.89 0,0 z"
         inkscape:connector-curvature="0" />
    </clipPath>
    <clipPath
       id="clipPath3027"
       clipPathUnits="userSpaceOnUse">
      <path
         id="path3029"
         d="m 354.331,538.582 240.944,0 0,303.307 -240.944,0 0,-303.307 z"
         inkscape:connector-curvature="0" />
    </clipPath>
    <clipPath
       id="clipPath3013"
       clipPathUnits="userSpaceOnUse">
      <path
         id="path3015"
         d="m 53.859,510.236 141.732,0 0,141.732 -141.732,0 0,-141.732 z"
         inkscape:connector-curvature="0" />
    </clipPath>
    <clipPath
       id="clipPath2999"
       clipPathUnits="userSpaceOnUse">
      <path
         id="path3001"
         d="m 195.591,436.535 158.74,0 0,102.047 -158.74,0 0,-102.047 z"
         inkscape:connector-curvature="0" />
    </clipPath>
  </defs>
  <sodipodi:namedview
     id="base"
     pagecolor="#ffffff"
     bordercolor="#666666"
     borderopacity="1.0"
     inkscape:pageopacity="0.0"
     inkscape:pageshadow="2"
     inkscape:zoom="1.4"
     inkscape:cx="352.29788"
     inkscape:cy="86.710671"
     inkscape:document-units="px"
     inkscape:current-layer="layer1"
     showgrid="false"
     fit-margin-top="0"
     fit-margin-left="0"
     fit-margin-right="0"
     fit-margin-bottom="0"
     inkscape:window-width="1440"
     inkscape:window-height="853"
     inkscape:window-x="-4"
     inkscape:window-y="-4"
     inkscape:window-maximized="1" />
  <metadata
     id="metadata7">
    <rdf:RDF>
      <cc:Work
         rdf:about="">
        <dc:format>image/svg+xml</dc:format>
        <dc:type
           rdf:resource="http://purl.org/dc/dcmitype/StillImage" />
        <dc:title />
      </cc:Work>
    </rdf:RDF>
  </metadata>
  <g
     inkscape:label="Ebene 1"
     inkscape:groupmode="layer"
     id="layer1"
     transform="translate(22.0475,-768.9589)">
    <g
       clip-path="url(#clipPath3041)"
       id="g3039"
       transform="matrix(3.3056972,0,0,-3.3056972,-651.90402,1171.4351)">
      <g
         transform="translate(204.9094,114.0481)"
         id="g3045">
        <path
           id="path3047"
           style="fill:#0098a4;fill-opacity:1;fill-rule:nonzero;stroke:none"
           d="m 0,0 c 1.967,0.111 6.619,0.166 9.438,-0.057 5.177,-0.388 7.408,-3.393 7.408,-7.175 0,-4.952 -3.801,-8.457 -10.357,-9.012 -2.227,-0.167 -4.851,-0.167 -6.489,0 L 0,0 z m 0,-18.43 c 1.638,0 5.898,-0.391 8.848,0.111 9.237,1.57 13.999,4.633 13.999,11.365 0,6.73 -4.176,9.126 -16.883,9.126 l -11.693,0 0,-38.064 c 0.911,0.053 1.887,0.14 2.864,0.14 0.912,0 1.823,-0.087 2.865,-0.14 l 0,17.462 z"
           inkscape:connector-curvature="0" />
      </g>
      <g
         transform="translate(244.3415,90.4537)"
         id="g3049">
        <path
           id="path3051"
           style="fill:#0098a4;fill-opacity:1;fill-rule:nonzero;stroke:none"
           d="m 0,0 c 0,-1.528 0.072,-2.469 -0.141,-3.997 -0.492,-3.405 -3.172,-7.165 -7.614,-7.401 -3.736,-0.235 -5.498,2.703 -5.216,5.404 0.633,6.053 2.961,5.289 10.153,7.52 L 0,2.407 0,0 z M 0,3.7 -1.058,3.288 C -3.454,2.349 -3.384,2.467 -7.755,1.526 c -5.147,-1.115 -10.434,-1.761 -10.714,-7.635 -0.143,-3.703 3.736,-6.522 8.106,-6.757 4.301,-0.236 8.601,1.644 10.012,5.227 l 0,-4.522 8.6,0 0,0.999 -2.961,0 0,16.39 c 0,4.348 -0.774,8.401 -10.081,8.812 -2.539,0.117 -2.156,-0.116 -3.987,-0.353 -2.116,-0.293 -4.091,-0.939 -5.5,-1.468 l 0,-7.871 1.268,0 1.552,3.288 c 1.338,2.821 1.52,5.876 6.103,5.464 C -0.774,12.689 0,10.162 0,7.46 L 0,3.7 z"
           inkscape:connector-curvature="0" />
      </g>
      <g
         transform="translate(270.2197,78.2928)"
         id="g3053">
        <path
           id="path3055"
           style="fill:#0098a4;fill-opacity:1;fill-rule:nonzero;stroke:none"
           d="m 0,0 -12.76,0 0,0.998 3.173,0 0,23.499 -3.314,0 0,1.058 8.249,0 0,-5.348 c 0.351,1.941 3.313,5.524 7.965,5.524 1.34,0 2.539,-0.295 3.877,-0.881 l 0,-9.282 -1.338,0 -1.692,4.288 C 2.962,22.853 2.045,24.79 0.212,23.91 -4.581,21.62 -4.16,16.098 -4.16,10.926 l 0,-9.928 4.16,0 L 0,0 z"
           inkscape:connector-curvature="0" />
      </g>
      <g
         transform="translate(280.4572,78.2928)"
         id="g3057">
        <path
           id="path3059"
           style="fill:#0098a4;fill-opacity:1;fill-rule:nonzero;stroke:none"
           d="m 0,0 0,0.998 3.243,0 0,23.499 -3.031,0 0,1.058 8.53,0 0,-24.557 2.889,0 L 11.631,0 0,0 z m 8.882,31.489 c 0,-1.646 -1.621,-2.821 -3.454,-2.821 -1.762,0 -3.383,1.294 -3.383,2.761 0,1.47 1.549,2.881 3.313,2.881 1.903,0 3.524,-1.294 3.524,-2.821"
           inkscape:connector-curvature="0" />
      </g>
      <g
         transform="translate(314.1468,97.856)"
         id="g3061">
        <path
           id="path3063"
           style="fill:#0098a4;fill-opacity:1;fill-rule:nonzero;stroke:none"
           d="m 0,0 c -1.338,3.995 -2.68,5.581 -6.348,5.581 -3.17,0 -7.191,-1.059 -7.473,-4.29 -0.21,-2.879 3.386,-4.054 6.627,-4.935 5.501,-1.586 11.918,-3.23 11.708,-8.341 -0.144,-4.876 -5.006,-8.461 -11.637,-8.342 -3.806,0.058 -8.105,1.292 -9.588,2.173 l 0,8.401 1.271,0 1.48,-4.229 c 1.622,-4.762 3.453,-4.818 6.346,-5.053 4.017,-0.353 8.602,1.291 8.952,4.583 0.496,4.053 -5.993,5.109 -10.081,6.344 -2.891,0.881 -8.53,2.467 -8.53,7.285 0,5.639 7.331,7.52 11.208,7.52 3.243,0 6.982,-1.058 8.32,-1.763 l 0,-7.697 -1.338,0 L 0,0 z"
           inkscape:connector-curvature="0" />
      </g>
      <g
         transform="translate(346.4395,116.219)"
         id="g3065">
        <path
           id="path3067"
           style="fill:#000000;fill-opacity:1;fill-rule:nonzero;stroke:none"
           d="m 0,0 -34.048,0 0.166,-0.995 0.116,-0.88 -0.125,-0.952 -0.167,-0.972 0.333,0.042 c 3.28,0.29 7.363,0.644 14.06,0.654 l 0,-34.829 3.118,0.091 3.114,-0.091 0.006,0.263 0,34.562 c 4.625,-0.009 9.136,-0.222 13.404,-0.648 L 0.295,-3.787 0.207,-3.113 0.101,-1.875 0.196,-0.771 0.289,0.001 0,0 z"
           inkscape:connector-curvature="0" />
      </g>
      <g
         transform="translate(364.5576,93.9051)"
         id="g3069">
        <path
           id="path3071"
           style="fill:#000000;fill-opacity:1;fill-rule:nonzero;stroke:none"
           d="m 0,0 c 0.042,0.349 0.063,0.701 0.063,1.052 0,2.369 -0.924,4.733 -2.611,6.615 -2.147,2.39 -5.211,3.691 -8.633,3.663 -7.002,-0.114 -12.415,-5.822 -12.872,-13.576 -0.209,-3.859 1.075,-7.435 3.612,-10.075 2.502,-2.6 5.942,-3.999 9.688,-3.941 6.452,0.127 10.358,5.057 10.756,9.63 l 0.091,1.101 -1.846,0 -0.092,-0.934 c -0.351,-3.514 -3.212,-8.338 -8.475,-8.056 -5.051,0.238 -7.304,3.802 -7.304,11.554 l 0,2.743 17.598,0 L 0,0 z m -6.435,1.403 -11.137,0 c 0.087,0.489 0.509,2.871 0.509,2.871 0.456,2.611 2.531,5.313 5.61,5.431 1.281,0.061 2.347,-0.299 3.172,-1.067 1.084,-1.01 1.735,-2.737 1.783,-4.737 0,0 0.047,-1.827 0.063,-2.498"
           inkscape:connector-curvature="0" />
      </g>
      <g
         transform="translate(381.968,105.4107)"
         id="g3073">
        <path
           id="path3075"
           style="fill:#000000;fill-opacity:1;fill-rule:nonzero;stroke:none"
           d="m 0,0 c -8.953,-0.32 -13.783,-7.36 -13.783,-13.825 0,-6.657 4.464,-13.766 12.733,-13.826 4.22,-0.05 9.504,1.473 10.686,9.028 l 0.258,1.586 -1.779,0 -0.392,-2.087 c -0.612,-3.113 -2.889,-6.729 -7.288,-6.668 -6.764,0.055 -7.495,6.028 -7.647,11.622 -0.089,3.543 0.33,8.302 2.839,10.832 1.199,1.21 2.79,1.805 4.727,1.77 3.025,-0.053 4.816,-2.095 6.388,-7.278 0.003,-0.006 0.765,-2.296 0.765,-2.296 l 1.777,0 0,9.343 -0.142,0.069 C 5.972,-0.179 2.421,0.067 0,0"
           inkscape:connector-curvature="0" />
      </g>
      <g
         transform="translate(404.5965,113.5202)"
         id="g3077">
        <path
           id="path3079"
           style="fill:#000000;fill-opacity:1;fill-rule:nonzero;stroke:none"
           d="m 0,0 -8.783,0 0,-1.568 3.174,0 0,-32.098 -2.963,0 0,-1.506 12.848,0 0,1.506 -4.02,0 0,10.909 c 0,7.962 2.111,11.895 6.452,12.024 1.185,0.034 2.047,-0.228 2.635,-0.799 1.092,-1.063 1.122,-3.057 1.122,-5.188 l 0,-16.946 -3.736,0 0,-1.506 12.563,0 0,1.506 -3.101,0 0,16.902 c 0,5.534 -2.074,7.645 -7.922,8.067 -3.485,0.268 -6.675,-1.872 -8.013,-3.889 L 0.256,0 0,0 z"
           inkscape:connector-curvature="0" />
      </g>
      <g
         transform="translate(199.1339,54.4756)"
         id="g3081">
        <path
           id="path3083"
           style="fill:#000000;fill-opacity:1;fill-rule:nonzero;stroke:none"
           d="m 0,0 2.33,0 c 0.906,0 1.385,-0.081 1.838,-0.326 0.711,-0.388 1.079,-0.972 1.079,-1.675 0,-0.715 -0.208,-1.246 -0.76,-1.664 C 3.921,-4.084 3.31,-4.217 2.452,-4.217 l -1.471,0 0,-2.79 L 0,-7.007 0,0 z m 0.981,-0.703 0,-2.829 1.409,0 c 0.712,0 1.03,0.111 1.312,0.377 0.295,0.274 0.43,0.593 0.43,0.989 0,0.522 -0.148,0.868 -0.49,1.115 -0.344,0.246 -0.798,0.348 -1.595,0.348 l -1.066,0 z"
           inkscape:connector-curvature="0" />
      </g>
    </g>
    <g
       id="g3085"
       transform="matrix(3.3056972,0,0,-3.3056972,43.955808,991.3552)">
      <path
         inkscape:connector-curvature="0"
         d="m 0,0 2.782,-7.007 -1.139,0 -0.798,2.155 -3.138,0 -0.81,-2.155 -1.016,0 L -1.313,0 0,0 z m 0.588,-4.165 -1.287,3.43 -1.326,-3.43 2.613,0 z"
         style="fill:#000000;fill-opacity:1;fill-rule:nonzero;stroke:none"
         id="path3087" />
    </g>
    <g
       id="g3089"
       transform="matrix(3.3056972,0,0,-3.3056972,-651.90402,1171.4351)">
      <g
         id="g3091"
         clip-path="url(#clipPath3093)">
        <g
           id="g3097"
           transform="translate(216.6157,54.4756)">
          <path
             inkscape:connector-curvature="0"
             d="m 0,0 1.962,0 c 1.152,0 1.715,-0.172 2.119,-0.448 0.381,-0.255 0.834,-0.725 0.834,-1.47 0,-1.155 -0.893,-1.921 -2.229,-1.921 l -0.125,0 c 0.393,-0.267 0.675,-0.593 0.846,-0.788 0.358,-0.397 1.938,-2.38 1.938,-2.38 l -1.264,0 C 3.837,-6.548 3.053,-5.474 1.937,-4.29 1.605,-3.943 1.422,-3.85 1.006,-3.839 l 0,-3.168 L 0,-7.007 0,0 z m 1.017,-0.703 0,-2.616 0.895,0 c 0.749,0 1.202,0.113 1.52,0.357 0.283,0.216 0.43,0.593 0.43,1.053 0,0.459 -0.345,0.9 -0.821,1.063 -0.27,0.091 -0.602,0.143 -1.055,0.143 l -0.969,0 z"
             style="fill:#000000;fill-opacity:1;fill-rule:nonzero;stroke:none"
             id="path3099" />
        </g>
      </g>
    </g>
    <path
       inkscape:connector-curvature="0"
       d="m 92.833185,991.3539 3.242885,0 0,23.1628 -3.242885,0 0,-23.1628 z"
       style="fill:#000000;fill-opacity:1;fill-rule:nonzero;stroke:none"
       id="path3101" />
    <g
       id="g3103"
       transform="matrix(3.3056972,0,0,-3.3056972,-651.90402,1171.4351)">
      <g
         id="g3105"
         clip-path="url(#clipPath3107)">
        <g
           id="g3111"
           transform="translate(235.425,53.9557)">
          <path
             inkscape:connector-curvature="0"
             d="m 0,0 -0.44,-0.604 c -0.811,0.441 -1.326,0.595 -2.047,0.595 -1.057,0 -1.681,-0.439 -1.681,-1.155 0,-0.562 0.405,-0.878 1.397,-1.144 l 0.968,-0.256 c 0.748,-0.195 1.14,-0.378 1.485,-0.706 0.342,-0.325 0.552,-0.796 0.552,-1.234 0,-0.656 -0.417,-1.289 -1.167,-1.687 -0.551,-0.296 -1.115,-0.429 -1.887,-0.429 -1.006,0 -1.863,0.205 -2.695,0.633 l 0.44,0.655 c 0.698,-0.42 1.409,-0.602 2.255,-0.602 0.638,0 0.982,0.08 1.336,0.306 0.404,0.255 0.602,0.591 0.602,1.002 0,0.62 -0.491,1.052 -1.508,1.307 l -0.846,0.214 c -0.761,0.193 -1.165,0.337 -1.496,0.623 -0.343,0.306 -0.526,0.695 -0.526,1.144 0,1.195 1.09,2.012 2.721,2.012 C -1.632,0.674 -0.798,0.45 0,0"
             style="fill:#000000;fill-opacity:1;fill-rule:nonzero;stroke:none"
             id="path3113" />
        </g>
      </g>
    </g>
    <path
       inkscape:connector-curvature="0"
       d="m 151.38039,991.3539 3.24289,0 0,23.1628 -3.24289,0 0,-23.1628 z"
       style="fill:#000000;fill-opacity:1;fill-rule:nonzero;stroke:none"
       id="path3115" />
    <g
       id="g3117"
       transform="matrix(3.3056972,0,0,-3.3056972,-651.90402,1171.4351)">
      <g
         id="g3119"
         clip-path="url(#clipPath3121)">
        <g
           id="g3125"
           transform="translate(248.5371,54.4756)">
          <path
             inkscape:connector-curvature="0"
             d="m 0,0 1.166,0 2.795,-4.473 c 0.442,-0.695 0.784,-1.473 0.784,-1.473 0,0 -0.099,1.126 -0.112,2.137 L 4.597,0 l 0.994,0 0,-7.007 -1.053,0 -2.698,4.291 c -0.539,0.848 -0.957,1.685 -0.957,1.685 0,0 0.097,-0.999 0.112,-1.909 L 1.042,-7.007 0,-7.007 0,0 z"
             style="fill:#000000;fill-opacity:1;fill-rule:nonzero;stroke:none"
             id="path3127" />
        </g>
        <g
           id="g3129"
           transform="translate(263.2106,53.9557)">
          <path
             inkscape:connector-curvature="0"
             d="m 0,0 -0.441,-0.604 c -0.808,0.441 -1.322,0.595 -2.048,0.595 -1.055,0 -1.679,-0.439 -1.679,-1.155 0,-0.562 0.405,-0.878 1.398,-1.144 l 0.969,-0.256 c 0.746,-0.195 1.138,-0.378 1.483,-0.706 0.341,-0.325 0.551,-0.796 0.551,-1.234 0,-0.656 -0.416,-1.289 -1.164,-1.687 -0.553,-0.296 -1.118,-0.429 -1.889,-0.429 -1.004,0 -1.865,0.205 -2.697,0.633 l 0.44,0.655 c 0.699,-0.42 1.411,-0.602 2.257,-0.602 0.636,0 0.981,0.08 1.336,0.306 0.406,0.255 0.6,0.591 0.6,1.002 0,0.62 -0.488,1.052 -1.506,1.307 l -0.847,0.214 c -0.758,0.193 -1.163,0.337 -1.495,0.623 -0.345,0.306 -0.528,0.695 -0.528,1.144 0,1.195 1.092,2.012 2.722,2.012 C -1.629,0.674 -0.798,0.45 0,0"
             style="fill:#000000;fill-opacity:1;fill-rule:nonzero;stroke:none"
             id="path3131" />
        </g>
      </g>
    </g>
    <g
       id="g3133"
       transform="matrix(3.3056972,0,0,-3.3056972,227.54727,991.3552)">
      <path
         inkscape:connector-curvature="0"
         d="m 0,0 5.566,0 -0.06,-0.703 -2.282,0 0,-6.304 -0.969,0 0,6.304 L 0,-0.703 0,0 z"
         style="fill:#000000;fill-opacity:1;fill-rule:nonzero;stroke:none"
         id="path3135" />
    </g>
    <path
       inkscape:connector-curvature="0"
       d="m 256.5247,991.3539 3.24288,0 0,23.1628 -3.24288,0 0,-23.1628 z"
       style="fill:#000000;fill-opacity:1;fill-rule:nonzero;stroke:none"
       id="path3137" />
    <g
       id="g3139"
       transform="matrix(3.3056972,0,0,-3.3056972,270.25987,991.3552)">
      <path
         inkscape:connector-curvature="0"
         d="m 0,0 5.565,0 -0.059,-0.703 -2.282,0 0,-6.304 -0.969,0 0,6.304 L 0,-0.703 0,0 z"
         style="fill:#000000;fill-opacity:1;fill-rule:nonzero;stroke:none"
         id="path3141" />
    </g>
    <g
       id="g3143"
       transform="matrix(3.3056972,0,0,-3.3056972,-651.90402,1171.4351)">
      <g
         id="g3145"
         clip-path="url(#clipPath3147)">
        <g
           id="g3151"
           transform="translate(287.725,54.4756)">
          <path
             inkscape:connector-curvature="0"
             d="m 0,0 0.993,0 0,-4.717 c 0,-0.348 0.035,-0.798 0.148,-1.013 0.16,-0.307 0.612,-0.683 1.643,-0.683 0.697,0 1.225,0.153 1.482,0.439 0.282,0.316 0.32,0.622 0.32,1.092 l 0,4.882 0.992,0 0,-4.983 c 0,-0.849 -0.135,-1.249 -0.638,-1.606 -0.514,-0.366 -1.189,-0.54 -2.207,-0.54 -1.298,0 -2.034,0.316 -2.489,1.011 C 0.025,-5.78 0,-5.331 0,-5.024 L 0,0 z"
             style="fill:#000000;fill-opacity:1;fill-rule:nonzero;stroke:none"
             id="path3153" />
        </g>
      </g>
    </g>
    <g
       id="g3155"
       transform="matrix(3.3056972,0,0,-3.3056972,328.00246,991.3552)">
      <path
         inkscape:connector-curvature="0"
         d="m 0,0 5.564,0 -0.059,-0.703 -2.282,0 0,-6.304 -0.968,0 0,6.304 L 0,-0.703 0,0 z"
         style="fill:#000000;fill-opacity:1;fill-rule:nonzero;stroke:none"
         id="path3157" />
    </g>
    <g
       id="g3159"
       transform="matrix(3.3056972,0,0,-3.3056972,356.45725,991.3552)">
      <path
         inkscape:connector-curvature="0"
         d="m 0,0 4.599,0 -0.135,-0.695 -3.445,0 0,-2.298 2.881,0 0,-0.724 -2.881,0 0,-2.565 3.702,0 0,-0.725 L 0,-7.007 0,0 z"
         style="fill:#000000;fill-opacity:1;fill-rule:nonzero;stroke:none"
         id="path3161" />
    </g>
    <g
       id="g3163"
       transform="matrix(3.3056972,0,0,-3.3056972,-651.90402,1171.4351)">
      <g
         id="g3165"
         clip-path="url(#clipPath3167)">
        <g
           id="g3171"
           transform="translate(321.2578,54.6003)">
          <path
             inkscape:connector-curvature="0"
             d="m 0,0 c 1.459,0 2.243,-0.645 2.647,-1.146 0.527,-0.652 0.76,-1.47 0.76,-2.594 0,-1.35 -0.368,-2.196 -1.224,-2.851 -0.627,-0.469 -1.265,-0.674 -2.135,-0.674 -1.028,0 -1.826,0.348 -2.391,0.89 -0.662,0.634 -1.003,1.583 -1.003,2.778 C -3.346,-1.37 -2.071,0 0,0 m 0,-0.675 c -0.786,0 -1.484,-0.317 -1.801,-0.815 -0.296,-0.462 -0.429,-1.064 -0.429,-1.934 0,-1.051 0.208,-1.97 0.539,-2.44 0.318,-0.451 1.103,-0.756 1.79,-0.756 0.685,0 1.188,0.204 1.567,0.603 0.419,0.438 0.615,1 0.615,2.155 0,1.031 -0.123,1.736 -0.407,2.227 -0.293,0.52 -0.907,0.96 -1.874,0.96"
             style="fill:#000000;fill-opacity:1;fill-rule:nonzero;stroke:none"
             id="path3173" />
        </g>
      </g>
    </g>
    <g
       id="g3175"
       transform="matrix(3.3056972,0,0,-3.3056972,431.42814,991.3552)">
      <path
         inkscape:connector-curvature="0"
         d="m 0,0 4.424,0 -0.158,-0.695 -3.251,0 0,-2.298 2.699,0 0,-0.684 -2.699,0 0,-3.33 L 0,-7.007 0,0 z"
         style="fill:#000000;fill-opacity:1;fill-rule:nonzero;stroke:none"
         id="path3177" />
    </g>
    <g
       id="g3179"
       transform="matrix(3.3056972,0,0,-3.3056972,471.06246,991.3552)">
      <path
         inkscape:connector-curvature="0"
         d="m 0,0 5.566,0 -0.061,-0.703 -2.281,0 0,-6.304 -0.968,0 0,6.304 L 0,-0.703 0,0 z"
         style="fill:#000000;fill-opacity:1;fill-rule:nonzero;stroke:none"
         id="path3181" />
    </g>
    <g
       id="g3183"
       transform="matrix(3.3056972,0,0,-3.3056972,500.00547,991.3552)">
      <path
         inkscape:connector-curvature="0"
         d="m 0,0 4.595,0 -0.134,-0.695 -3.446,0 0,-2.298 2.881,0 0,-0.724 -2.881,0 0,-2.565 3.702,0 0,-0.725 L 0,-7.007 0,0 z"
         style="fill:#000000;fill-opacity:1;fill-rule:nonzero;stroke:none"
         id="path3185" />
    </g>
    <g
       id="g3187"
       transform="matrix(3.3056972,0,0,-3.3056972,-651.90402,1171.4351)">
      <g
         id="g3189"
         clip-path="url(#clipPath3191)">
        <g
           id="g3195"
           transform="translate(361.5059,53.9961)">
          <path
             inkscape:connector-curvature="0"
             d="m 0,0 -0.539,-0.542 c -0.503,0.307 -0.979,0.44 -1.594,0.44 -0.969,0 -1.667,-0.418 -2.071,-1.205 -0.246,-0.47 -0.355,-1.031 -0.355,-1.859 0,-0.675 0.072,-1.072 0.269,-1.482 0.429,-0.878 1.298,-1.307 2.255,-1.307 0.626,0 1.103,0.133 1.642,0.449 l 0.539,-0.563 c -0.673,-0.365 -1.506,-0.57 -2.341,-0.57 -0.907,0 -1.801,0.317 -2.45,0.928 -0.713,0.676 -1.006,1.625 -1.006,2.668 0,2.084 1.496,3.615 3.53,3.615 C -1.312,0.572 -0.575,0.367 0,0"
             style="fill:#000000;fill-opacity:1;fill-rule:nonzero;stroke:none"
             id="path3197" />
        </g>
      </g>
    </g>
    <g
       id="g3199"
       transform="matrix(3.3056972,0,0,-3.3056972,553.31218,991.3552)">
      <path
         inkscape:connector-curvature="0"
         d="m 0,0 0.983,0 0,-2.931 3.542,0 0,2.931 1.004,0 0,-7.007 -1.004,0 0,3.391 -3.542,0 0,-3.391 L 0,-7.007 0,0 z"
         style="fill:#000000;fill-opacity:1;fill-rule:nonzero;stroke:none"
         id="path3201" />
    </g>
    <g
       id="g3203"
       transform="matrix(3.3056972,0,0,-3.3056972,-651.90402,1171.4351)">
      <g
         id="g3205"
         clip-path="url(#clipPath3207)">
        <g
           id="g3211"
           transform="translate(374.2498,54.4756)">
          <path
             inkscape:connector-curvature="0"
             d="m 0,0 1.165,0 2.794,-4.473 c 0.442,-0.695 0.786,-1.473 0.786,-1.473 0,0 -0.1,1.126 -0.112,2.137 L 4.597,0 l 0.992,0 0,-7.007 -1.053,0 -2.697,4.291 c -0.539,0.848 -0.955,1.685 -0.955,1.685 0,0 0.098,-0.999 0.11,-1.909 L 1.042,-7.007 0,-7.007 0,0 z"
             style="fill:#000000;fill-opacity:1;fill-rule:nonzero;stroke:none"
             id="path3213" />
        </g>
        <g
           id="g3215"
           transform="translate(386.7794,54.6003)">
          <path
             inkscape:connector-curvature="0"
             d="m 0,0 c 1.458,0 2.242,-0.645 2.647,-1.146 0.527,-0.652 0.76,-1.47 0.76,-2.594 0,-1.35 -0.368,-2.196 -1.225,-2.851 C 1.558,-7.06 0.918,-7.265 0.05,-7.265 c -1.031,0 -1.827,0.348 -2.393,0.89 -0.66,0.634 -1.003,1.583 -1.003,2.778 C -3.346,-1.37 -2.072,0 0,0 m 0,-0.675 c -0.785,0 -1.483,-0.317 -1.803,-0.815 -0.294,-0.462 -0.429,-1.064 -0.429,-1.934 0,-1.051 0.21,-1.97 0.539,-2.44 0.32,-0.451 1.104,-0.756 1.792,-0.756 0.685,0 1.189,0.204 1.568,0.603 0.418,0.438 0.612,1 0.612,2.155 0,1.031 -0.123,1.736 -0.405,2.227 -0.293,0.52 -0.905,0.96 -1.874,0.96"
             style="fill:#000000;fill-opacity:1;fill-rule:nonzero;stroke:none"
             id="path3217" />
        </g>
      </g>
    </g>
    <g
       id="g3219"
       transform="matrix(3.3056972,0,0,-3.3056972,648.49409,991.3552)">
      <path
         inkscape:connector-curvature="0"
         d="m 0,0 1.006,0 0,-6.302 3.321,0 L 4.192,-7.007 0,-7.007 0,0 z"
         style="fill:#000000;fill-opacity:1;fill-rule:nonzero;stroke:none"
         id="path3221" />
    </g>
    <g
       id="g3223"
       transform="matrix(3.3056972,0,0,-3.3056972,-651.90402,1171.4351)">
      <g
         id="g3225"
         clip-path="url(#clipPath3227)">
        <g
           id="g3231"
           transform="translate(403.0432,54.6003)">
          <path
             inkscape:connector-curvature="0"
             d="m 0,0 c 1.459,0 2.243,-0.645 2.647,-1.146 0.527,-0.652 0.76,-1.47 0.76,-2.594 0,-1.35 -0.368,-2.196 -1.224,-2.851 -0.626,-0.469 -1.265,-0.674 -2.134,-0.674 -1.029,0 -1.826,0.348 -2.392,0.89 -0.661,0.634 -1.003,1.583 -1.003,2.778 C -3.346,-1.37 -2.07,0 0,0 m 0,-0.675 c -0.785,0 -1.483,-0.317 -1.801,-0.815 -0.296,-0.462 -0.431,-1.064 -0.431,-1.934 0,-1.051 0.211,-1.97 0.541,-2.44 0.318,-0.451 1.104,-0.756 1.79,-0.756 0.687,0 1.188,0.204 1.569,0.603 0.416,0.438 0.613,1 0.613,2.155 0,1.031 -0.123,1.736 -0.405,2.227 -0.294,0.52 -0.908,0.96 -1.876,0.96"
             style="fill:#000000;fill-opacity:1;fill-rule:nonzero;stroke:none"
             id="path3233" />
        </g>
        <g
           id="g3235"
           transform="translate(415.2214,53.8635)">
          <path
             inkscape:connector-curvature="0"
             d="m 0,0 -0.453,-0.52 c -0.687,0.386 -1.177,0.54 -1.827,0.54 -0.981,0 -1.752,-0.376 -2.096,-1.185 -0.221,-0.52 -0.331,-1.113 -0.331,-1.777 0,-0.919 0.208,-1.665 0.588,-2.126 0.381,-0.457 1.237,-0.743 2.036,-0.743 0.527,0 0.98,0.092 1.337,0.275 l 0,2.133 -1.693,0 -0.196,0.696 2.832,0 0,-3.269 c -0.6,-0.326 -1.509,-0.53 -2.366,-0.53 -1.055,0 -1.95,0.305 -2.588,0.878 -0.709,0.642 -1.04,1.51 -1.04,2.717 0,1.339 0.429,2.289 1.298,2.942 0.601,0.45 1.324,0.663 2.195,0.663 C -1.409,0.694 -0.638,0.459 0,0"
             style="fill:#000000;fill-opacity:1;fill-rule:nonzero;stroke:none"
             id="path3237" />
        </g>
        <g
           id="g3239"
           transform="translate(417.7053,54.4756)">
          <path
             inkscape:connector-curvature="0"
             d="m 0,0 1.238,0 1.594,-2.675 c 0.234,-0.398 0.429,-0.787 0.429,-0.787 0,0 0.21,0.378 0.454,0.787 L 5.332,0 6.486,0 3.751,-4.279 l 0,-2.728 -1.042,0 0,2.779 L 0,0 z"
             style="fill:#000000;fill-opacity:1;fill-rule:nonzero;stroke:none"
             id="path3241" />
        </g>
      </g>
    </g>
    <path
       inkscape:connector-curvature="0"
       d="m 6.805721,951.43744 3.090827,0 0,23.70848 -3.090827,0 0,-23.70848 z"
       style="fill:#000000;fill-opacity:1;fill-rule:nonzero;stroke:none"
       id="path3243" />
    <g
       id="g3245"
       transform="matrix(3.3056972,0,0,-3.3056972,-651.90402,1171.4351)">
      <g
         id="g3247"
         clip-path="url(#clipPath3249)">
        <g
           id="g3253"
           transform="translate(203.0709,66.5506)">
          <path
             inkscape:connector-curvature="0"
             d="m 0,0 1.111,0 2.665,-4.58 c 0.421,-0.711 0.747,-1.505 0.747,-1.505 0,0 -0.094,1.151 -0.103,2.185 L 4.385,0 l 0.944,0 0,-7.172 -1.003,0 -2.571,4.39 c -0.515,0.87 -0.912,1.726 -0.912,1.726 0,0 0.094,-1.025 0.104,-1.953 L 0.993,-7.172 0,-7.172 0,0 z"
             style="fill:#000000;fill-opacity:1;fill-rule:nonzero;stroke:none"
             id="path3255" />
        </g>
        <g
           id="g3257"
           transform="translate(215.5813,66.0182)">
          <path
             inkscape:connector-curvature="0"
             d="m 0,0 -0.422,-0.618 c -0.771,0.448 -1.261,0.605 -1.951,0.605 -1.006,0 -1.602,-0.448 -1.602,-1.182 0,-0.573 0.387,-0.898 1.334,-1.169 l 0.923,-0.26 c 0.712,-0.199 1.085,-0.389 1.414,-0.723 0.328,-0.334 0.527,-0.815 0.527,-1.265 0,-0.667 -0.399,-1.316 -1.112,-1.725 -0.525,-0.303 -1.064,-0.439 -1.801,-0.439 -0.955,0 -1.775,0.208 -2.57,0.649 l 0.42,0.668 c 0.668,-0.428 1.345,-0.616 2.15,-0.616 0.609,0 0.936,0.085 1.276,0.313 0.386,0.26 0.572,0.605 0.572,1.025 0,0.638 -0.469,1.077 -1.437,1.339 l -0.807,0.219 c -0.724,0.198 -1.111,0.344 -1.426,0.636 -0.328,0.316 -0.504,0.712 -0.504,1.173 0,1.222 1.041,2.059 2.596,2.059 0.865,0 1.658,-0.23 2.42,-0.689"
             style="fill:#000000;fill-opacity:1;fill-rule:nonzero;stroke:none"
             id="path3259" />
        </g>
      </g>
    </g>
    <g
       id="g3261"
       transform="matrix(3.3056972,0,0,-3.3056972,66.208439,951.43876)">
      <path
         inkscape:connector-curvature="0"
         d="m 0,0 5.307,0 -0.06,-0.721 -2.174,0 0,-6.451 -0.923,0 0,6.451 -2.15,0 L 0,0 z"
         style="fill:#000000;fill-opacity:1;fill-rule:nonzero;stroke:none"
         id="path3263" />
    </g>
    <path
       inkscape:connector-curvature="0"
       d="m 88.459748,951.43744 3.094132,0 0,23.70848 -3.094132,0 0,-23.70848 z"
       style="fill:#000000;fill-opacity:1;fill-rule:nonzero;stroke:none"
       id="path3265" />
    <g
       id="g3267"
       transform="matrix(3.3056972,0,0,-3.3056972,97.14942,951.43876)">
      <path
         inkscape:connector-curvature="0"
         d="m 0,0 5.305,0 -0.057,-0.721 -2.174,0 0,-6.451 -0.925,0 0,6.451 L 0,-0.721 0,0 z"
         style="fill:#000000;fill-opacity:1;fill-rule:nonzero;stroke:none"
         id="path3269" />
    </g>
    <g
       id="g3271"
       transform="matrix(3.3056972,0,0,-3.3056972,-651.90402,1171.4351)">
      <g
         id="g3273"
         clip-path="url(#clipPath3275)">
        <g
           id="g3279"
           transform="translate(233.4752,66.5506)">
          <path
             inkscape:connector-curvature="0"
             d="m 0,0 0.947,0 0,-4.83 c 0,-0.355 0.035,-0.815 0.139,-1.035 0.154,-0.313 0.585,-0.702 1.568,-0.702 0.664,0 1.169,0.16 1.413,0.451 0.27,0.323 0.304,0.637 0.304,1.119 l 0,4.997 0.947,0 0,-5.104 C 5.318,-5.968 5.19,-6.377 4.71,-6.743 4.218,-7.119 3.575,-7.297 2.607,-7.297 1.368,-7.297 0.666,-6.974 0.234,-6.263 0.024,-5.918 0,-5.457 0,-5.144 L 0,0 z"
             style="fill:#000000;fill-opacity:1;fill-rule:nonzero;stroke:none"
             id="path3281" />
        </g>
      </g>
    </g>
    <g
       id="g3283"
       transform="matrix(3.3056972,0,0,-3.3056972,142.43782,951.43876)">
      <path
         inkscape:connector-curvature="0"
         d="m 0,0 5.304,0 -0.057,-0.721 -2.174,0 0,-6.451 -0.923,0 0,6.451 -2.15,0 L 0,0 z"
         style="fill:#000000;fill-opacity:1;fill-rule:nonzero;stroke:none"
         id="path3285" />
    </g>
    <g
       id="g3287"
       transform="matrix(3.3056972,0,0,-3.3056972,-651.90402,1171.4351)">
      <g
         id="g3289"
         clip-path="url(#clipPath3291)">
        <g
           id="g3295"
           transform="translate(250.5981,66.5506)">
          <path
             inkscape:connector-curvature="0"
             d="m 0,0 1.599,0 c 1.228,0 1.79,-0.052 2.573,-0.555 0.911,-0.586 1.355,-1.641 1.355,-3.04 0,-1.257 -0.373,-2.145 -0.911,-2.678 C 3.915,-6.974 3.213,-7.172 2.091,-7.172 L 0,-7.172 0,0 z m 0.958,-0.702 0,-5.758 0.959,0 c 0.829,0 1.6,0.083 2.033,0.752 0.363,0.553 0.537,1.253 0.537,2.006 0,1.077 -0.152,1.768 -0.689,2.342 -0.527,0.554 -1.039,0.658 -1.881,0.658 l -0.959,0 z"
             style="fill:#000000;fill-opacity:1;fill-rule:nonzero;stroke:none"
             id="path3297" />
        </g>
      </g>
    </g>
    <g
       id="g3299"
       transform="matrix(3.3056972,0,0,-3.3056972,202.02465,951.43876)">
      <path
         inkscape:connector-curvature="0"
         d="m 0,0 4.381,0 -0.125,-0.711 -3.285,0 0,-2.354 2.745,0 0,-0.742 -2.745,0 0,-2.624 3.529,0 0,-0.741 -4.5,0 L 0,0 z"
         style="fill:#000000;fill-opacity:1;fill-rule:nonzero;stroke:none"
         id="path3301" />
    </g>
    <g
       id="g3303"
       transform="matrix(3.3056972,0,0,-3.3056972,-651.90402,1171.4351)">
      <g
         id="g3305"
         clip-path="url(#clipPath3307)">
        <g
           id="g3311"
           transform="translate(269.9077,66.0182)">
          <path
             inkscape:connector-curvature="0"
             d="m 0,0 -0.42,-0.618 c -0.771,0.448 -1.263,0.605 -1.953,0.605 -1.003,0 -1.602,-0.448 -1.602,-1.182 0,-0.573 0.387,-0.898 1.334,-1.169 l 0.923,-0.26 c 0.712,-0.199 1.088,-0.389 1.414,-0.723 0.327,-0.334 0.527,-0.815 0.527,-1.265 0,-0.667 -0.398,-1.316 -1.11,-1.725 -0.527,-0.303 -1.066,-0.439 -1.799,-0.439 -0.959,0 -1.778,0.208 -2.574,0.649 l 0.42,0.668 c 0.668,-0.428 1.345,-0.616 2.154,-0.616 0.605,0 0.934,0.085 1.272,0.313 0.386,0.26 0.572,0.605 0.572,1.025 0,0.638 -0.467,1.077 -1.437,1.339 l -0.806,0.219 c -0.725,0.198 -1.111,0.344 -1.426,0.636 -0.329,0.316 -0.503,0.712 -0.503,1.173 0,1.222 1.039,2.059 2.594,2.059 0.865,0 1.662,-0.23 2.42,-0.689"
             style="fill:#000000;fill-opacity:1;fill-rule:nonzero;stroke:none"
             id="path3313" />
        </g>
        <g
           id="g3315"
           transform="translate(280.0826,66.0182)">
          <path
             inkscape:connector-curvature="0"
             d="m 0,0 -0.42,-0.618 c -0.771,0.448 -1.263,0.605 -1.953,0.605 -1.003,0 -1.598,-0.448 -1.598,-1.182 0,-0.573 0.385,-0.898 1.332,-1.169 l 0.921,-0.26 c 0.715,-0.199 1.088,-0.389 1.414,-0.723 0.327,-0.334 0.527,-0.815 0.527,-1.265 0,-0.667 -0.399,-1.316 -1.11,-1.725 -0.526,-0.303 -1.063,-0.439 -1.799,-0.439 -0.959,0 -1.778,0.208 -2.574,0.649 l 0.423,0.668 c 0.665,-0.428 1.342,-0.616 2.151,-0.616 0.608,0 0.934,0.085 1.273,0.313 0.385,0.26 0.573,0.605 0.573,1.025 0,0.638 -0.469,1.077 -1.439,1.339 l -0.805,0.219 c -0.726,0.198 -1.112,0.344 -1.427,0.636 -0.326,0.316 -0.503,0.712 -0.503,1.173 0,1.222 1.043,2.059 2.594,2.059 0.865,0 1.661,-0.23 2.42,-0.689"
             style="fill:#000000;fill-opacity:1;fill-rule:nonzero;stroke:none"
             id="path3317" />
        </g>
        <g
           id="g3319"
           transform="translate(286.9536,66.0586)">
          <path
             inkscape:connector-curvature="0"
             d="m 0,0 -0.512,-0.553 c -0.48,0.313 -0.934,0.449 -1.519,0.449 -0.925,0 -1.591,-0.429 -1.976,-1.235 -0.234,-0.479 -0.339,-1.056 -0.339,-1.903 0,-0.689 0.07,-1.096 0.257,-1.515 0.409,-0.898 1.24,-1.337 2.15,-1.337 0.598,0 1.052,0.135 1.566,0.458 L 0.141,-6.21 c -0.642,-0.376 -1.436,-0.586 -2.232,-0.586 -0.865,0 -1.717,0.326 -2.338,0.953 -0.677,0.69 -0.956,1.662 -0.956,2.727 0,2.135 1.424,3.702 3.366,3.702 0.77,0 1.471,-0.21 2.019,-0.586"
             style="fill:#000000;fill-opacity:1;fill-rule:nonzero;stroke:none"
             id="path3321" />
        </g>
      </g>
    </g>
    <path
       inkscape:connector-curvature="0"
       d="m 302.89702,951.43744 3.08752,0 0,23.70848 -3.08752,0 0,-23.70848 z"
       style="fill:#000000;fill-opacity:1;fill-rule:nonzero;stroke:none"
       id="path3323" />
    <g
       id="g3325"
       transform="matrix(3.3056972,0,0,-3.3056972,314.25274,951.43876)">
      <path
         inkscape:connector-curvature="0"
         d="m 0,0 4.382,0 -0.13,-0.711 -3.284,0 0,-2.354 2.746,0 0,-0.742 -2.746,0 0,-2.624 3.53,0 0,-0.741 L 0,-7.172 0,0 z"
         style="fill:#000000;fill-opacity:1;fill-rule:nonzero;stroke:none"
         id="path3327" />
    </g>
    <g
       id="g3329"
       transform="matrix(3.3056972,0,0,-3.3056972,-651.90402,1171.4351)">
      <g
         id="g3331"
         clip-path="url(#clipPath3333)">
        <g
           id="g3337"
           transform="translate(298.8685,66.5506)">
          <path
             inkscape:connector-curvature="0"
             d="m 0,0 1.111,0 2.666,-4.58 c 0.419,-0.711 0.746,-1.505 0.746,-1.505 0,0 -0.094,1.151 -0.106,2.185 L 4.384,0 l 0.947,0 0,-7.172 -1.007,0 -2.569,4.39 c -0.515,0.87 -0.913,1.726 -0.913,1.726 0,0 0.096,-1.025 0.105,-1.953 L 0.994,-7.172 0,-7.172 0,0 z"
             style="fill:#000000;fill-opacity:1;fill-rule:nonzero;stroke:none"
             id="path3339" />
        </g>
        <g
           id="g3341"
           transform="translate(311.4509,66.0586)">
          <path
             inkscape:connector-curvature="0"
             d="m 0,0 -0.516,-0.553 c -0.479,0.313 -0.935,0.449 -1.518,0.449 -0.925,0 -1.59,-0.429 -1.977,-1.235 -0.233,-0.479 -0.338,-1.056 -0.338,-1.903 0,-0.689 0.07,-1.096 0.257,-1.515 0.409,-0.898 1.24,-1.337 2.152,-1.337 0.595,0 1.05,0.135 1.564,0.458 L 0.138,-6.21 c -0.642,-0.376 -1.438,-0.586 -2.232,-0.586 -0.865,0 -1.718,0.326 -2.335,0.953 -0.681,0.69 -0.959,1.662 -0.959,2.727 0,2.135 1.426,3.702 3.363,3.702 C -1.252,0.586 -0.552,0.376 0,0"
             style="fill:#000000;fill-opacity:1;fill-rule:nonzero;stroke:none"
             id="path3343" />
        </g>
      </g>
    </g>
    <g
       id="g3345"
       transform="matrix(3.3056972,0,0,-3.3056972,383.8661,951.43876)">
      <path
         inkscape:connector-curvature="0"
         d="m 0,0 4.385,0 -0.128,-0.711 -3.285,0 0,-2.354 2.746,0 0,-0.742 -2.746,0 0,-2.624 3.529,0 0,-0.741 L 0,-7.172 0,0 z"
         style="fill:#000000;fill-opacity:1;fill-rule:nonzero;stroke:none"
         id="path3347" />
    </g>
    <g
       id="g3349"
       transform="matrix(3.3056972,0,0,-3.3056972,-651.90402,1171.4351)">
      <g
         id="g3351"
         clip-path="url(#clipPath3353)">
        <g
           id="g3357"
           transform="translate(324.483,66.0182)">
          <path
             inkscape:connector-curvature="0"
             d="m 0,0 -0.421,-0.618 c -0.771,0.448 -1.262,0.605 -1.952,0.605 -1.004,0 -1.601,-0.448 -1.601,-1.182 0,-0.573 0.385,-0.898 1.333,-1.169 l 0.922,-0.26 c 0.715,-0.199 1.086,-0.389 1.413,-0.723 0.33,-0.334 0.527,-0.815 0.527,-1.265 0,-0.667 -0.395,-1.316 -1.109,-1.725 -0.526,-0.303 -1.063,-0.439 -1.799,-0.439 -0.96,0 -1.778,0.208 -2.573,0.649 l 0.422,0.668 c 0.666,-0.428 1.343,-0.616 2.151,-0.616 0.607,0 0.933,0.085 1.273,0.313 0.385,0.26 0.573,0.605 0.573,1.025 0,0.638 -0.468,1.077 -1.44,1.339 l -0.805,0.219 c -0.724,0.198 -1.11,0.344 -1.426,0.636 -0.326,0.316 -0.502,0.712 -0.502,1.173 0,1.222 1.04,2.059 2.594,2.059 0.865,0 1.66,-0.23 2.42,-0.689"
             style="fill:#000000;fill-opacity:1;fill-rule:nonzero;stroke:none"
             id="path3359" />
        </g>
      </g>
    </g>
    <g
       id="g3361"
       transform="matrix(3.3056972,0,0,-3.3056972,437.50038,951.43876)">
      <path
         inkscape:connector-curvature="0"
         d="m 0,0 4.382,0 -0.128,-0.711 -3.284,0 0,-2.354 2.748,0 0,-0.742 -2.748,0 0,-2.624 3.531,0 0,-0.741 L 0,-7.172 0,0 z"
         style="fill:#000000;fill-opacity:1;fill-rule:nonzero;stroke:none"
         id="path3363" />
    </g>
    <g
       id="g3365"
       transform="matrix(3.3056972,0,0,-3.3056972,456.1164,951.43876)">
      <path
         inkscape:connector-curvature="0"
         d="m 0,0 5.306,0 -0.057,-0.721 -2.176,0 0,-6.451 -0.921,0 0,6.451 L 0,-0.721 0,0 z"
         style="fill:#000000;fill-opacity:1;fill-rule:nonzero;stroke:none"
         id="path3367" />
    </g>
    <g
       id="g3369"
       transform="matrix(3.3056972,0,0,-3.3056972,486.04653,951.43876)">
      <path
         inkscape:connector-curvature="0"
         d="m 0,0 5.304,0 -0.056,-0.721 -2.176,0 0,-6.451 -0.925,0 0,6.451 L 0,-0.721 0,0 z"
         style="fill:#000000;fill-opacity:1;fill-rule:nonzero;stroke:none"
         id="path3371" />
    </g>
    <g
       id="g3373"
       transform="matrix(3.3056972,0,0,-3.3056972,508.25121,951.43876)">
      <path
         inkscape:connector-curvature="0"
         d="m 0,0 4.382,0 -0.125,-0.711 -3.285,0 0,-2.354 2.746,0 0,-0.742 -2.746,0 0,-2.624 3.53,0 0,-0.741 L 0,-7.172 0,0 z"
         style="fill:#000000;fill-opacity:1;fill-rule:nonzero;stroke:none"
         id="path3375" />
    </g>
    <g
       id="g3377"
       transform="matrix(3.3056972,0,0,-3.3056972,-651.90402,1171.4351)">
      <g
         id="g3379"
         clip-path="url(#clipPath3381)">
        <g
           id="g3385"
           transform="translate(362.1973,66.0586)">
          <path
             inkscape:connector-curvature="0"
             d="m 0,0 -0.513,-0.553 c -0.477,0.313 -0.936,0.449 -1.52,0.449 -0.923,0 -1.587,-0.429 -1.976,-1.235 -0.235,-0.479 -0.339,-1.056 -0.339,-1.903 0,-0.689 0.07,-1.096 0.257,-1.515 0.412,-0.898 1.241,-1.337 2.15,-1.337 0.597,0 1.054,0.135 1.567,0.458 L 0.141,-6.21 c -0.642,-0.376 -1.437,-0.586 -2.232,-0.586 -0.865,0 -1.719,0.326 -2.338,0.953 -0.677,0.69 -0.959,1.659 -0.959,2.727 0,2.135 1.426,3.702 3.366,3.702 C -1.25,0.586 -0.548,0.376 0,0"
             style="fill:#000000;fill-opacity:1;fill-rule:nonzero;stroke:none"
             id="path3387" />
        </g>
      </g>
    </g>
    <g
       id="g3389"
       transform="matrix(3.3056972,0,0,-3.3056972,551.14694,951.43876)">
      <path
         inkscape:connector-curvature="0"
         d="m 0,0 0.936,0 0,-3.003 3.375,0 0,3.003 0.96,0 0,-7.172 -0.96,0 0,3.47 -3.375,0 0,-3.47 L 0,-7.172 0,0 z"
         style="fill:#000000;fill-opacity:1;fill-rule:nonzero;stroke:none"
         id="path3391" />
    </g>
    <g
       id="g3393"
       transform="matrix(3.3056972,0,0,-3.3056972,-651.90402,1171.4351)">
      <g
         id="g3395"
         clip-path="url(#clipPath3397)">
        <g
           id="g3401"
           transform="translate(371.8023,66.5506)">
          <path
             inkscape:connector-curvature="0"
             d="m 0,0 1.11,0 2.664,-4.58 c 0.42,-0.711 0.749,-1.505 0.749,-1.505 0,0 -0.095,1.151 -0.106,2.185 L 4.383,0 l 0.945,0 0,-7.172 -1.005,0 -2.569,4.39 c -0.516,0.87 -0.915,1.726 -0.915,1.726 0,0 0.095,-1.025 0.108,-1.953 L 0.992,-7.172 0,-7.172 0,0 z"
             style="fill:#000000;fill-opacity:1;fill-rule:nonzero;stroke:none"
             id="path3403" />
        </g>
        <g
           id="g3405"
           transform="translate(382.5552,66.6757)">
          <path
             inkscape:connector-curvature="0"
             d="m 0,0 c 1.391,0 2.139,-0.658 2.525,-1.17 0.502,-0.669 0.724,-1.507 0.724,-2.657 0,-1.38 -0.351,-2.248 -1.169,-2.916 -0.596,-0.482 -1.202,-0.691 -2.031,-0.691 -0.983,0 -1.743,0.356 -2.283,0.911 -0.63,0.649 -0.958,1.621 -0.958,2.843 C -3.192,-1.401 -1.977,0 0,0 m 0,-0.689 c -0.747,0 -1.415,-0.326 -1.719,-0.837 -0.279,-0.47 -0.408,-1.088 -0.408,-1.975 0,-1.079 0.199,-2.019 0.514,-2.5 0.304,-0.459 1.054,-0.775 1.707,-0.775 0.654,0 1.133,0.212 1.497,0.617 0.395,0.451 0.583,1.027 0.583,2.206 0,1.057 -0.116,1.778 -0.385,2.28 C 1.508,-1.141 0.923,-0.689 0,-0.689"
             style="fill:#000000;fill-opacity:1;fill-rule:nonzero;stroke:none"
             id="path3407" />
        </g>
      </g>
    </g>
    <g
       id="g3409"
       transform="matrix(3.3056972,0,0,-3.3056972,629.99707,951.43876)">
      <path
         inkscape:connector-curvature="0"
         d="m 0,0 0.956,0 0,-6.451 3.168,0 L 3.995,-7.172 0,-7.172 0,0 z"
         style="fill:#000000;fill-opacity:1;fill-rule:nonzero;stroke:none"
         id="path3411" />
    </g>
    <g
       id="g3413"
       transform="matrix(3.3056972,0,0,-3.3056972,-651.90402,1171.4351)">
      <g
         id="g3415"
         clip-path="url(#clipPath3417)">
        <g
           id="g3421"
           transform="translate(395.9417,66.6757)">
          <path
             inkscape:connector-curvature="0"
             d="m 0,0 c 1.392,0 2.141,-0.658 2.525,-1.17 0.503,-0.669 0.726,-1.507 0.726,-2.657 0,-1.38 -0.353,-2.248 -1.169,-2.916 -0.598,-0.482 -1.204,-0.691 -2.035,-0.691 -0.981,0 -1.739,0.356 -2.278,0.911 -0.63,0.649 -0.96,1.621 -0.96,2.843 C -3.191,-1.401 -1.975,0 0,0 m 0,-0.689 c -0.746,0 -1.413,-0.326 -1.716,-0.837 -0.282,-0.47 -0.409,-1.088 -0.409,-1.975 0,-1.079 0.197,-2.019 0.512,-2.5 0.306,-0.459 1.052,-0.775 1.707,-0.775 0.655,0 1.133,0.212 1.495,0.617 0.398,0.451 0.586,1.027 0.586,2.206 0,1.057 -0.118,1.778 -0.388,2.28 C 1.508,-1.141 0.925,-0.689 0,-0.689"
             style="fill:#000000;fill-opacity:1;fill-rule:nonzero;stroke:none"
             id="path3423" />
        </g>
        <g
           id="g3425"
           transform="translate(406.4932,65.9235)">
          <path
             inkscape:connector-curvature="0"
             d="m 0,0 -0.431,-0.532 c -0.657,0.394 -1.124,0.552 -1.742,0.552 -0.937,0 -1.67,-0.386 -1.999,-1.211 -0.21,-0.534 -0.315,-1.141 -0.315,-1.821 0,-0.94 0.199,-1.704 0.56,-2.172 0.363,-0.473 1.181,-0.765 1.941,-0.765 0.503,0 0.934,0.095 1.275,0.282 l 0,2.185 -1.613,0 -0.188,0.711 2.7,0 0,-3.344 c -0.574,-0.335 -1.439,-0.546 -2.255,-0.546 -1.007,0 -1.86,0.314 -2.466,0.9 -0.678,0.658 -0.994,1.548 -0.994,2.78 0,1.37 0.408,2.343 1.239,3.012 0.573,0.462 1.263,0.681 2.092,0.681 C -1.345,0.712 -0.608,0.471 0,0"
             style="fill:#000000;fill-opacity:1;fill-rule:nonzero;stroke:none"
             id="path3427" />
        </g>
      </g>
    </g>
    <path
       inkscape:connector-curvature="0"
       d="m 701.34592,951.43744 3.09414,0 0,23.70848 -3.09414,0 0,-23.70848 z"
       style="fill:#000000;fill-opacity:1;fill-rule:nonzero;stroke:none"
       id="path3429" />
    <g
       id="g3431"
       transform="matrix(3.3056972,0,0,-3.3056972,712.22035,951.43876)">
      <path
         inkscape:connector-curvature="0"
         d="m 0,0 4.382,0 -0.128,-0.711 -3.285,0 0,-2.354 2.746,0 0,-0.742 -2.746,0 0,-2.624 3.531,0 0,-0.741 -4.5,0 L 0,0 z"
         style="fill:#000000;fill-opacity:1;fill-rule:nonzero;stroke:none"
         id="path3433" />
    </g>
  </g>
</svg>
